<svg xmlns="http://www.w3.org/2000/svg" xmlns:xlink="http://www.w3.org/1999/xlink" width="59.843994" height="59.844028" viewBox="0 0 59.844 59.844"><path d="M6.40002 2L3.65002 6.05L2.70001 6.05L2.70001 7.55L4.45001 7.55L7.20001 3.5L8.09998 3.5C8.45001 4.65 9.5 5.5 10.75 5.5C12.3 5.5 13.5 4.25 13.5 2.75C13.5 1.25 12.25 0 10.75 0C9.5 0 8.40002 0.849998 8.09998 2L6.40002 2L6.40002 2L6.40002 2ZM10.75 1.5C11.45 1.5 12 2.05 12 2.75C12 3.45 11.45 4 10.75 4C10.05 4 9.5 3.45 9.5 2.75C9.5 2.05 10.05 1.5 10.75 1.5L10.75 1.5ZM10.75 14.8C9.5 14.8 8.40002 15.65 8.09998 16.8L7.20001 16.8L4.54999 12.75L2.70001 12.75L2.70001 14.25L3.75 14.25L6.40002 18.3L8.09998 18.3C8.45001 19.45 9.5 20.3 10.75 20.3C12.3 20.3 13.5 19.05 13.5 17.55C13.5 16.05 12.3 14.8 10.75 14.8L10.75 14.8ZM10.75 18.8C10.05 18.8 9.5 18.25 9.5 17.55C9.5 16.85 10.05 16.3 10.75 16.3C11.45 16.3 12 16.85 12 17.55C12 18.25 11.45 18.8 10.75 18.8L10.75 18.8ZM11.45 7.4C10.2 7.4 9.09998 8.25 8.79999 9.4L4.04999 9.4L4.04999 10.9L8.79999 10.9C9.15002 12.05 10.2 12.9 11.45 12.9C13 12.9 14.2 11.65 14.2 10.15C14.2 8.65 12.95 7.4 11.45 7.4L11.45 7.4ZM11.45 11.4C10.75 11.4 10.2 10.85 10.2 10.15C10.2 9.45 10.75 8.9 11.45 8.9C12.15 8.9 12.7 9.45 12.7 10.15C12.7 10.85 12.15 11.4 11.45 11.4L11.45 11.4ZM5.34998 20.85C4.90002 20.85 4.45001 20.95 4.09998 21.15L1.15002 16.15L0 16.15L0 17.65L0.299988 17.65L3 22.2C2.75 22.6 2.59998 23.1 2.59998 23.6C2.59998 25.15 3.84998 26.35 5.34998 26.35C6.84998 26.35 8.09998 25.1 8.09998 23.6C8.09998 22.1 6.90002 20.85 5.34998 20.85L5.34998 20.85L5.34998 20.85ZM5.34998 24.9C4.65002 24.9 4.09998 24.35 4.09998 23.65C4.09998 22.95 4.65002 22.4 5.34998 22.4C6.04999 22.4 6.59998 22.95 6.59998 23.65C6.59998 24.35 6.04999 24.9 5.34998 24.9L5.34998 24.9ZM0 6.05L1.34998 6.05L1.34998 7.55L0 7.55L0 6.05L0 6.05ZM0 12.75L1.34998 12.75L1.34998 14.25L0 14.25L0 12.75L0 12.75ZM1.34998 9.4L2.70001 9.4L2.70001 10.9L1.34998 10.9L1.34998 9.4L1.34998 9.4Z" fill="#2344DC" fill-opacity="1.000000" transform="matrix(1 0 0 1 33.472 19.222)"/><path d="M18.95 21.6L21.55 21.6L21.55 20.1L18.95 20.1L18.95 18.25L20.2 18.25L20.2 16.75L18.95 16.75L18.95 14.9L22.65 14.9L25.8 11.3C26.15 11.45 26.55 11.55 26.95 11.55C28.5 11.55 29.7 10.3 29.7 8.8C29.7 7.3 28.45 6.05 26.95 6.05C25.45 6.05 24.2 7.3 24.2 8.8C24.2 9.35 24.4 9.9 24.7 10.35L22 13.45L19 13.45L19 4L17.5 4L17.5 6.3C16.5 5.25 15.1 4.6 13.55 4.6C11.35 4.6 9.29999 6 8.5 8C5.54999 8.4 3.34998 11.15 3.34998 14.45L3.34998 14.7C1.29999 15.9 0 18.55 0 21.5C0 23.35 0.5 25.1 1.45001 26.45C1.29999 27.15 1.29999 27.85 1.40002 28.55C1.75 31.9 4.34998 34.4 7.25 34.4C7.29999 34.5 7.34998 34.6 7.40002 34.65C7.40002 34.7 7.45001 34.75 7.45001 34.8C8.5 36.6 10.55 37.75 12.8 37.75C14.65 37.75 16.3 36.95 17.45 35.75L17.45 38.35L18.95 38.35L18.95 28.35L20.2 28.35L20.2 26.85L18.95 26.85L18.95 25L20.2 25L20.2 23.5L18.95 23.5L18.95 21.6L18.95 21.6ZM26.95 7.45C27.65 7.45 28.2 8 28.2 8.7C28.2 9.4 27.65 9.95 26.95 9.95C26.25 9.95 25.7 9.4 25.7 8.7C25.7 8 26.25 7.45 26.95 7.45L26.95 7.45ZM12.85 36.25C10.9 36.25 9.15002 35.1 8.5 33.35C8.34998 32.9 8.25 32.4 8.25 31.95C8.25 29.6 10.35 27.65 12.9 27.65L13.65 27.65L13.65 26.25C13.65 25.5 14.95 24.3 15.6 24.3L15.6 22.8C14.2 22.8 12.2 24.55 12.15 26.2C10.6 26.4 9.25 27.1 8.25 28.15C7.25 27.85 6.25 27.15 6.25 26.2L4.75 26.2C4.75 27.75 6 28.9 7.34998 29.4C6.95001 30.15 6.75 31 6.75 31.9C6.75 32.2 6.79999 32.5 6.84998 32.8C4.84998 32.55 3.20001 30.75 2.90002 28.35C2.84998 27.7 2.84998 27.05 3 26.45L3.09998 26.1L2.90002 25.8C2.04999 24.65 1.54999 23.1 1.54999 21.45C1.54999 18.85 2.75 16.6 4.5 15.75L5 15.5L4.95001 14.95C4.90002 14.7 4.90002 14.5 4.90002 14.3C4.90002 12 6.29999 10.05 8.15002 9.5L8.15002 9.95C8.15002 11.05 8.5 12.1 9.04999 12.95C7.79999 13.55 6.79999 14.6 6.79999 16L8.29999 16C8.29999 15.1 9.20001 14.45 10.1 14.15C11.05 14.95 12.25 15.4 13.6 15.4L13.6 13.9C11.4 13.9 9.65002 12.1 9.65002 9.95C9.65002 9.6 9.70001 9.2 9.79999 8.85L9.79999 8.8C10.3 7.15 11.85 5.95 13.6 5.95C15.8 5.95 17.55 7.75 17.55 9.9L17.55 11.4C16.1 11.45 14.85 10.6 14.3 9.15L12.9 9.65C13.65 11.65 15.45 12.9 17.4 12.9L17.55 12.9L17.55 18.15C16.9033 17.6459 16.1699 17.3959 15.35 17.4C13.95 17.4 12.45 18.15 11.35 19.45C10.45 20.5 9.09998 21.35 7.90002 20.65L7.90002 20.7C7.65002 19.25 6.40002 18.1 4.84998 18.1L4.84998 19.6C5.75 19.6 6.45001 20.3 6.45001 21.2C6.45001 22.1 5.75 22.8 4.84998 22.8L4.84998 24.3C6.20001 24.3 7.34998 23.45 7.79999 22.25C8.15002 22.35 8.5 22.45 8.90002 22.45C10.15 22.45 11.45 21.75 12.55 20.45C13.35 19.5 14.45 18.95 15.4 18.95C16.05 18.95 16.65 19.2 17.1 19.75C17.3 20 17.45 20.25 17.6 20.55L17.6 28.25C15.55 28.2 13.7 29.45 12.95 31.5L14.35 32C14.9 30.55 16.2 29.65 17.6 29.75L17.6 32C17.45 34.3 15.4 36.25 12.85 36.25L12.85 36.25L12.85 36.25ZM17.45 0L18.95 0L18.95 2.7L17.45 2.7L17.45 0L17.45 0ZM17.45 39.7L18.95 39.7L18.95 42.4L17.45 42.4L17.45 39.7L17.45 39.7Z" fill="#2344DC" fill-opacity="1.000000" transform="matrix(1 0 0 1 11.872 8.52201)"/></svg>